<svg width="180" height="180" viewBox="0 0 180 180" fill="none" xmlns="http://www.w3.org/2000/svg">
<path d="M73.3333 56.6667V123.333M106.667 56.6667V123.333M56.6667 73.3333H73.3333M56.6667 106.667H73.3333M56.6667 90H123.333M106.667 73.3333H123.333M106.667 106.667H123.333M56.6667 65C56.6667 62.7899 57.5446 60.6703 59.1074 59.1074C60.6702 57.5446 62.7899 56.6667 65 56.6667H115C117.21 56.6667 119.33 57.5446 120.893 59.1074C122.455 60.6703 123.333 62.7899 123.333 65V115C123.333 117.21 122.455 119.33 120.893 120.893C119.33 122.455 117.21 123.333 115 123.333H65C62.7899 123.333 60.6702 122.455 59.1074 120.893C57.5446 119.33 56.6667 117.21 56.6667 115V65Z" stroke="#FFC727" stroke-width="5" stroke-linecap="round" stroke-linejoin="round"/>
<path d="M53.7881 35.2283C54.4827 36.0562 54.9266 36.8991 55.1195 37.757C55.3225 38.6066 55.3453 39.4543 55.1882 40.3C55.031 41.1458 54.7312 41.9838 54.2889 42.8138C53.8482 43.6256 53.3316 44.4075 52.7389 45.1598C52.1463 45.912 51.5069 46.6186 50.8206 47.2794C50.1442 47.9319 49.4919 48.5218 48.8635 49.0491C48.2451 49.568 47.5808 50.0829 46.8706 50.5938C46.1789 51.1063 45.4578 51.5839 44.7074 52.0265C43.957 52.4692 43.1873 52.8686 42.3983 53.2247C41.6009 53.5709 40.8007 53.8428 39.9978 54.0406L23.7978 34.7949C24.1638 34.0968 24.5858 33.3943 25.0635 32.6875C25.5329 31.9707 26.0415 31.2804 26.5894 30.6167C27.1389 29.9347 27.7128 29.2917 28.3109 28.6878C28.9006 28.074 29.4997 27.5118 30.1082 27.0012C30.8164 26.407 31.5672 25.8534 32.3607 25.3406C33.1642 24.8194 33.9879 24.3831 34.832 24.0318C35.6761 23.6805 36.5296 23.4317 37.3927 23.2854C38.2474 23.1291 39.0943 23.1154 39.9333 23.2443C40.7823 23.3648 41.5985 23.6488 42.3819 24.0962C43.1753 24.5353 43.9277 25.1788 44.6392 26.0266C45.1079 26.5852 45.4675 27.1758 45.718 27.7985C45.9685 28.4212 46.1073 29.0525 46.1345 29.6926C46.1617 30.3327 46.078 30.9724 45.8835 31.6116C45.6805 32.2408 45.3642 32.8462 44.9343 33.4278C45.725 33.0533 46.5227 32.8089 47.3276 32.6945C48.1424 32.5717 48.931 32.5898 49.6934 32.749C50.4658 32.8997 51.1987 33.1857 51.892 33.6068C52.5953 34.0195 53.2273 34.56 53.7881 35.2283ZM39.0314 33.0777C38.7887 32.7885 38.5238 32.5943 38.2367 32.4953C37.9413 32.3862 37.6494 32.3422 37.361 32.3632C37.0826 32.3758 36.8136 32.4401 36.5539 32.556C36.3042 32.6635 36.0996 32.7843 35.94 32.9182C35.7405 33.0856 35.5711 33.2787 35.4318 33.4976C35.2925 33.7164 35.1666 33.9411 35.054 34.1715L37.7513 37.5684C37.9807 37.3759 38.2482 37.1174 38.5539 36.7929C38.8595 36.4685 39.1126 36.1117 39.313 35.7226C39.515 35.3151 39.6169 34.8896 39.6187 34.4461C39.6122 33.9927 39.4164 33.5366 39.0314 33.0777ZM40.9996 39.738C40.7103 39.9807 40.4562 40.245 40.2371 40.5308L43.0396 43.9923C43.2144 43.8967 43.3841 43.8053 43.5488 43.718C43.7152 43.6124 43.8682 43.501 44.0078 43.3839C44.2173 43.2081 44.43 42.9957 44.6459 42.7465C44.8534 42.4874 45.0125 42.201 45.1231 41.8872C45.2254 41.5634 45.2501 41.2282 45.1972 40.8816C45.1543 40.5266 44.9739 40.1596 44.6558 39.7806C44.3378 39.4016 44.0035 39.1551 43.653 39.0413C43.3125 38.9191 42.9831 38.881 42.6648 38.9271C42.3382 38.9632 42.0335 39.066 41.7506 39.2353C41.4594 39.3947 41.2091 39.5622 40.9996 39.738Z" fill="#273339"/>
<path d="M39.8128 57.1213L34.8336 65.5247L30.6338 63.7306L27.8922 67.2397L30.7693 70.7268L23.8672 77.9749L8.15239 55.8325L14.4071 46.9386L39.8128 57.1213ZM25.4913 60.6051L19.2214 57.5903L23.6876 62.9138L25.4913 60.6051Z" fill="#273339"/>
<path d="M80.3828 26.0391C80.3828 27.224 80.2461 28.3698 79.9727 29.4766C79.6992 30.5703 79.3021 31.599 78.7812 32.5625C78.2734 33.526 77.6484 34.4115 76.9062 35.2188C76.1771 36.013 75.3503 36.6966 74.4258 37.2695C73.5143 37.8424 72.5182 38.2917 71.4375 38.6172C70.3568 38.9297 69.2109 39.0859 68 39.0859C66.8281 39.0859 65.7083 38.9362 64.6406 38.6367C63.5859 38.3372 62.5964 37.9206 61.6719 37.3867C60.7474 36.8398 59.9076 36.1888 59.1523 35.4336C58.4102 34.6654 57.7721 33.819 57.2383 32.8945C56.7174 31.957 56.3073 30.9544 56.0078 29.8867C55.7214 28.819 55.5781 27.7057 55.5781 26.5469C55.5781 25.4141 55.7148 24.3073 55.9883 23.2266C56.2617 22.1328 56.6523 21.1042 57.1602 20.1406C57.681 19.1771 58.306 18.2917 59.0352 17.4844C59.7643 16.6771 60.5781 15.9805 61.4766 15.3945C62.388 14.8086 63.3711 14.3529 64.4258 14.0273C65.4805 13.7018 66.5938 13.5391 67.7656 13.5391C69.6536 13.5391 71.3724 13.832 72.9219 14.418C74.4844 15.0039 75.8125 15.8438 76.9062 16.9375C78.013 18.0182 78.8659 19.3333 79.4648 20.8828C80.0768 22.4193 80.3828 24.138 80.3828 26.0391ZM71.7109 26.5469C71.7109 25.987 71.6263 25.4466 71.457 24.9258C71.3008 24.3919 71.0664 23.9232 70.7539 23.5195C70.4414 23.1029 70.0508 22.7708 69.582 22.5234C69.1263 22.263 68.599 22.1328 68 22.1328C67.388 22.1328 66.8411 22.2435 66.3594 22.4648C65.8776 22.6862 65.4609 22.9922 65.1094 23.3828C64.7708 23.7604 64.5104 24.2096 64.3281 24.7305C64.1458 25.2383 64.0547 25.7786 64.0547 26.3516C64.0547 26.8984 64.1328 27.4453 64.2891 27.9922C64.4453 28.5391 64.6797 29.0339 64.9922 29.4766C65.3047 29.9193 65.6888 30.2773 66.1445 30.5508C66.6133 30.8242 67.1536 30.9609 67.7656 30.9609C68.3776 30.9609 68.9245 30.8438 69.4062 30.6094C69.901 30.362 70.3177 30.0365 70.6562 29.6328C70.9948 29.2161 71.2552 28.7409 71.4375 28.207C71.6198 27.6732 71.7109 27.1198 71.7109 26.5469Z" fill="#273339"/>
<path d="M99.6016 24.6484L98.7812 33.3203L82.3359 34.6094L82.9609 6.71875H93.1172L91.6719 24.6484H99.6016Z" fill="#273339"/>
<path d="M126.496 31.1643C126.189 32.3088 125.761 33.3802 125.21 34.3785C124.663 35.3642 124.013 36.2551 123.261 37.051C122.521 37.8502 121.688 38.5437 120.762 39.1314C119.852 39.7099 118.876 40.1562 117.835 40.4703C116.807 40.7878 115.728 40.9639 114.6 40.9986C113.475 41.0208 112.328 40.8751 111.158 40.5617C110.026 40.2584 108.983 39.824 108.03 39.2583C107.088 38.6961 106.24 38.0375 105.486 37.2826C104.734 36.5151 104.091 35.6688 103.557 34.7439C103.039 33.8097 102.642 32.8271 102.366 31.796C102.105 30.7556 101.969 29.681 101.956 28.5722C101.955 27.4667 102.105 26.3543 102.405 25.2349C102.698 24.1407 103.117 23.107 103.661 22.1339C104.208 21.1482 104.851 20.2557 105.591 19.4564C106.344 18.6605 107.177 17.967 108.09 17.3759C109.003 16.7849 109.969 16.3226 110.989 15.9892C112.021 15.6591 113.088 15.4734 114.191 15.4319C115.294 15.3905 116.412 15.5214 117.544 15.8247C119.368 16.3133 120.952 17.0412 122.297 18.0082C123.655 18.9786 124.72 20.1335 125.493 21.4731C126.283 22.8034 126.766 24.2945 126.944 25.9462C127.137 27.5887 126.988 29.3281 126.496 31.1643ZM117.988 29.4104C118.133 28.8696 118.191 28.3257 118.162 27.7788C118.15 27.2227 118.045 26.7093 117.847 26.2385C117.653 25.7551 117.362 25.3333 116.973 24.973C116.6 24.6035 116.125 24.3413 115.546 24.1863C114.955 24.0279 114.398 23.9932 113.875 24.0824C113.353 24.1715 112.871 24.3592 112.43 24.6455C112.006 24.9226 111.638 25.2892 111.327 25.7451C111.019 26.1884 110.792 26.6867 110.643 27.2401C110.502 27.7684 110.436 28.3168 110.445 28.8855C110.454 29.4542 110.553 29.9928 110.74 30.5013C110.927 31.0098 111.206 31.4551 111.575 31.8372C111.957 32.2226 112.444 32.4945 113.035 32.6529C113.626 32.8113 114.184 32.8397 114.71 32.738C115.252 32.6271 115.739 32.4205 116.171 32.1182C116.605 31.8034 116.98 31.4117 117.294 30.9432C117.609 30.4747 117.84 29.9638 117.988 29.4104Z" fill="#273339"/>
<path d="M148.766 46.2517C148.073 46.9945 147.376 47.6084 146.674 48.0935C145.991 48.578 145.276 48.9439 144.529 49.1911C143.782 49.4383 142.99 49.5719 142.153 49.5919C141.315 49.6119 140.404 49.5286 139.421 49.3418L137.173 58.5685L129.573 53.8314L133.048 45.695L131.223 44.1004L125.425 49.8029L119.283 44.0752C121.355 41.9484 123.414 39.8267 125.459 37.71C127.513 35.6023 129.581 33.4894 131.663 31.3715C132.703 30.2942 133.735 29.2263 134.757 28.168C135.78 27.1097 136.83 26.0596 137.909 25.0177C138.806 25.3918 139.654 25.7998 140.453 26.2417C141.251 26.6837 142.014 27.1637 142.742 27.6819C143.488 28.1994 144.207 28.7547 144.9 29.3477C145.612 29.9401 146.32 30.5649 147.025 31.222C148.11 32.2344 149.016 33.3635 149.741 34.6096C150.485 35.855 150.967 37.1417 151.189 38.4698C151.41 39.7979 151.337 41.1271 150.969 42.4574C150.61 43.7966 149.876 45.0613 148.766 46.2517ZM141.94 40.7413C142.313 40.3413 142.598 39.9214 142.794 39.4816C143 39.0506 143.105 38.6139 143.108 38.1716C143.129 37.7286 143.04 37.2895 142.841 36.8543C142.66 36.4184 142.355 36.0007 141.927 35.6011C141.736 35.4235 141.537 35.2646 141.329 35.1244C141.131 34.9747 140.924 34.8438 140.708 34.7316L135.524 39.8322L135.867 40.1519C136.276 40.5337 136.739 40.8676 137.256 41.1536C137.782 41.4485 138.314 41.6418 138.852 41.7336C139.399 41.8342 139.937 41.8108 140.466 41.6634C141.005 41.5248 141.496 41.2174 141.94 40.7413Z" fill="#273339"/>
<path d="M170.777 63.3274C169.669 63.8525 168.575 64.3769 167.496 64.9008C166.416 65.4246 165.316 65.9376 164.195 66.4399L159.805 59.4053L157.557 60.4275L160.379 65.5181L154.875 68.0777L151.864 63.0476L149.275 64.2593L151.623 68.4957L153.29 71.5022C151.999 72.1283 150.711 72.7455 149.426 73.3538C148.158 73.9673 146.888 74.5896 145.615 75.2207L137.111 60.685L162.047 47.5775L170.777 63.3274Z" fill="#273339"/>
<path d="M53.0495 128.8L33.2431 149.609L26.1694 144.183L35.9464 132.653L25.0303 139.403L22.397 137.193L27.0384 126.861L18.8732 136.531L11.7851 130.941L29.4346 110.514L37.376 116.668L32.1172 129.134L45 122.046L53.0495 128.8Z" fill="#273339"/>
<path d="M69.3828 146.211C69.3828 147.396 69.2461 148.542 68.9727 149.648C68.6992 150.742 68.3021 151.771 67.7812 152.734C67.2734 153.698 66.6484 154.583 65.9062 155.391C65.1771 156.185 64.3503 156.868 63.4258 157.441C62.5143 158.014 61.5182 158.464 60.4375 158.789C59.3568 159.102 58.2109 159.258 57 159.258C55.8281 159.258 54.7083 159.108 53.6406 158.809C52.5859 158.509 51.5964 158.092 50.6719 157.559C49.7474 157.012 48.9076 156.361 48.1523 155.605C47.4102 154.837 46.7721 153.991 46.2383 153.066C45.7174 152.129 45.3073 151.126 45.0078 150.059C44.7214 148.991 44.5781 147.878 44.5781 146.719C44.5781 145.586 44.7148 144.479 44.9883 143.398C45.2617 142.305 45.6523 141.276 46.1602 140.312C46.681 139.349 47.306 138.464 48.0352 137.656C48.7643 136.849 49.5781 136.152 50.4766 135.566C51.388 134.98 52.3711 134.525 53.4258 134.199C54.4805 133.874 55.5938 133.711 56.7656 133.711C58.6536 133.711 60.3724 134.004 61.9219 134.59C63.4844 135.176 64.8125 136.016 65.9062 137.109C67.013 138.19 67.8659 139.505 68.4648 141.055C69.0768 142.591 69.3828 144.31 69.3828 146.211ZM60.7109 146.719C60.7109 146.159 60.6263 145.618 60.457 145.098C60.3008 144.564 60.0664 144.095 59.7539 143.691C59.4414 143.275 59.0508 142.943 58.582 142.695C58.1263 142.435 57.599 142.305 57 142.305C56.388 142.305 55.8411 142.415 55.3594 142.637C54.8776 142.858 54.4609 143.164 54.1094 143.555C53.7708 143.932 53.5104 144.382 53.3281 144.902C53.1458 145.41 53.0547 145.951 53.0547 146.523C53.0547 147.07 53.1328 147.617 53.2891 148.164C53.4453 148.711 53.6797 149.206 53.9922 149.648C54.3047 150.091 54.6888 150.449 55.1445 150.723C55.6133 150.996 56.1536 151.133 56.7656 151.133C57.3776 151.133 57.9245 151.016 58.4062 150.781C58.901 150.534 59.3177 150.208 59.6562 149.805C59.9948 149.388 60.2552 148.913 60.4375 148.379C60.6198 147.845 60.7109 147.292 60.7109 146.719Z" fill="#273339"/>
<path d="M95.1172 135.617L87.9688 162.805L78.2812 163.352L69.4922 135.891L78.75 135.031L82.5 151.047L86.1328 135.031L95.1172 135.617Z" fill="#273339"/>
<path d="M109.586 135.5L107.438 162.102L99.1953 162.531V136.047L109.586 135.5Z" fill="#273339"/>
<path d="M130.741 127.82C131.148 128.977 131.555 130.12 131.963 131.248C132.371 132.376 132.766 133.524 133.149 134.691L125.694 138.322L126.476 140.664L131.833 138.39L133.803 144.131L128.486 146.6L129.421 149.301L133.879 147.409L137.043 146.066C137.531 147.415 138.01 148.76 138.481 150.102C138.959 151.427 139.445 152.756 139.939 154.087L124.594 161.025L114.165 134.856L130.741 127.82Z" fill="#273339"/>
<path d="M160.455 127.267C161.401 128.78 161.964 130.27 162.144 131.739C162.329 133.19 162.198 134.577 161.75 135.9C161.314 137.217 160.601 138.446 159.609 139.587C158.629 140.722 157.438 141.727 156.036 142.603C155.495 142.941 154.854 143.242 154.112 143.506C153.382 143.762 152.62 143.993 151.827 144.197C151.026 144.39 150.241 144.559 149.471 144.702C148.705 144.827 148.015 144.928 147.402 145.004L143.867 137.725C145.157 137.701 146.465 137.483 147.788 137.071C149.116 136.64 150.332 136.08 151.436 135.39C151.646 135.259 151.897 135.095 152.188 134.897C152.472 134.689 152.723 134.463 152.939 134.22C153.16 133.959 153.313 133.688 153.397 133.405C153.481 133.122 153.427 132.826 153.234 132.516C153.102 132.307 152.926 132.171 152.704 132.111C152.474 132.039 152.227 132.024 151.962 132.067C151.691 132.099 151.408 132.175 151.116 132.297C150.816 132.407 150.532 132.531 150.265 132.667C149.997 132.804 149.753 132.941 149.532 133.079C149.311 133.217 149.134 133.328 149.002 133.41C148.052 134.004 147.082 134.38 146.091 134.539C145.111 134.69 144.156 134.649 143.228 134.416C142.303 134.165 141.434 133.733 140.621 133.12C139.801 132.496 139.095 131.709 138.501 130.759C137.687 129.456 137.219 128.129 137.096 126.778C136.977 125.409 137.13 124.093 137.554 122.83C137.982 121.549 138.644 120.36 139.54 119.263C140.436 118.166 141.491 117.238 142.705 116.479C143.247 116.141 143.818 115.814 144.42 115.5C145.015 115.174 145.625 114.885 146.25 114.633C146.886 114.373 147.523 114.152 148.161 113.968C148.799 113.785 149.433 113.657 150.064 113.585L153.636 120.703C152.727 120.919 151.806 121.202 150.874 121.554C149.947 121.888 149.091 122.3 148.307 122.79C148.164 122.879 147.979 123.002 147.754 123.158C147.533 123.296 147.306 123.461 147.073 123.653C146.844 123.827 146.62 124.021 146.4 124.235C146.181 124.449 146.003 124.667 145.866 124.891C145.722 125.103 145.638 125.325 145.613 125.555C145.589 125.786 145.647 126.003 145.789 126.205C145.952 126.442 146.165 126.585 146.427 126.636C146.693 126.669 146.987 126.647 147.307 126.57C147.631 126.475 147.964 126.344 148.305 126.177C148.657 126.003 148.996 125.821 149.323 125.632C149.644 125.432 149.942 125.246 150.218 125.073C150.487 124.89 150.717 124.754 150.907 124.666C151.825 124.169 152.737 123.86 153.644 123.738C154.551 123.617 155.413 123.67 156.23 123.896C157.058 124.116 157.83 124.516 158.547 125.097C159.267 125.66 159.903 126.383 160.455 127.267Z" fill="#273339"/>
</svg>
